<?xml version="1.0" encoding="utf-8"?>
<!-- Generator: Adobe Illustrator 28.0.0, SVG Export Plug-In . SVG Version: 6.00 Build 0)  -->
<svg version="1.1" id="Layer_2_00000008833966333109905600000017695792367829045889_"
	 xmlns="http://www.w3.org/2000/svg" xmlns:xlink="http://www.w3.org/1999/xlink" x="0px" y="0px" viewBox="0 0 179 45"
	 style="enable-background:new 0 0 179 45;" xml:space="preserve">
<style type="text/css">
	.st0{fill:#005CB9;}
</style>
<g>
	<g>
		<path class="st0" d="M29.1,1.4c-4,0-7.7,1.3-10.7,3.5C19.9,5,21,6.3,21,7.8v0.1c0,0.8-0.3,1.5-0.8,2h0.7h0.2h12c1.6,0,3,1.3,3,3
			V13c0,0.8-0.3,1.5-0.8,2H36c1.6,0,3,1.3,3,3v0.1c0,0.8-0.3,1.5-0.8,2.1s-1.3,0.9-2.1,0.9H36h-0.7c0.5,0.6,0.8,1.3,0.8,2v0.1
			c0,0.8-0.3,1.5-0.8,2.1s-1.3,0.9-2.1,0.9h-0.1h-2.8c0.5,0.6,0.8,1.3,0.8,2v0.1c0,0.8-0.3,1.5-0.8,2.1s-1.3,0.9-2.1,0.9h-0.1H17.7
			h-1.6h-0.6c3.3,3.7,8.2,6.1,13.5,6.1h18.1V19.5C47.2,9.5,39.1,1.4,29.1,1.4z"/>
		<path class="st0" d="M37.4,18.1c0-0.8-0.6-1.4-1.4-1.4h-2.8l0,0l0,0l0,0H19.9c-0.6,0-1.1-0.5-1.1-1.1s0.5-1.1,1-1.1l0,0h13.3l0,0
			c0.4,0,0.7-0.2,1-0.4c0.3-0.3,0.4-0.6,0.4-1V13c0-0.8-0.6-1.4-1.4-1.4H17.3h-4.5h-1.6c-0.6,0-1.1-0.5-1.1-1.1s0.5-1.1,1-1.1l0,0
			h2.8h3.2h0.1h0.7c0.4,0,0.7-0.2,1-0.4c0.3-0.3,0.4-0.6,0.4-1V7.8c0-0.8-0.6-1.4-1.4-1.4h-1.4h-4.9l0,0C5.1,6.6,0.9,10.9,0.9,17.6
			v4.5C0.9,26.7,4,30,8.1,30h6.2h3.4l0,0h10.4l0,0c0.8,0,1.4-0.7,1.4-1.4v-0.1c0-0.4-0.2-0.7-0.4-1c-0.3-0.3-0.6-0.4-1-0.4h-8.3
			c-0.6,0-1.1-0.5-1.1-1.1s0.5-1.1,1-1.1l0,0h8.2l0,0h5l0,0c0.8,0,1.4-0.7,1.4-1.4v-0.1c0-0.8-0.6-1.4-1.4-1.4H19.6
			c-0.6,0-1.1-0.5-1.1-1.1s0.5-1.1,1-1.1l0,0h13.3H36l0,0c0.8,0,1.4-0.7,1.4-1.4V18.1L37.4,18.1z"/>
	</g>
	<g>
		<path class="st0" d="M60.1,11.6h4.7c4,0,7.7,1.2,7.7,5.6s-3.2,5.9-7.1,5.9h-1.6v7h-3.7C60.1,30.1,60.1,11.6,60.1,11.6z M63.9,20.2
			h1.3c1.9,0,3.5-0.6,3.5-2.8s-1.6-2.9-3.5-2.9h-1.3C63.9,14.5,63.9,20.2,63.9,20.2z"/>
		<path class="st0" d="M74.6,17.2c1.4-0.6,3.2-1,4.7-1c4.2,0,5.9,1.7,5.9,5.8v1.8c0,1.4,0,2.4,0.1,3.4c0,1,0.1,2,0.2,3.1h-3.1
			c-0.1-0.7-0.1-1.6-0.2-2h-0.1c-0.8,1.5-2.6,2.4-4.2,2.4c-2.4,0-4.8-1.5-4.8-4.1c0-2,1-3.2,2.3-3.9c1.4-0.7,3.1-0.8,4.6-0.8h2
			c0-2.2-1-2.9-3.1-2.9c-1.5,0-3,0.6-4.2,1.5L74.6,17.2L74.6,17.2z M78.8,27.8c1.1,0,1.9-0.5,2.5-1.2c0.6-0.8,0.7-1.8,0.7-2.8h-1.5
			c-1.6,0-4,0.3-4,2.4C76.5,27.3,77.5,27.8,78.8,27.8z"/>
		<path class="st0" d="M88.3,16.5h3.2v3.1h0.1c0.2-1.3,1.6-3.4,3.7-3.4c0.3,0,0.7,0,1.1,0.1v3.6c-0.3-0.2-1-0.3-1.6-0.3
			c-2.9,0-2.9,3.6-2.9,5.6v5h-3.6L88.3,16.5L88.3,16.5z"/>
		<path class="st0" d="M109,29.3c-1.3,0.7-2.8,1.1-4.7,1.1c-4.5,0-7.1-2.6-7.1-7.1c0-4,2.1-7.2,6.3-7.2c5.1,0,6.5,3.5,6.5,8.2h-9.4
			c0.2,2.2,1.7,3.4,3.9,3.4c1.7,0,3.2-0.6,4.5-1.4L109,29.3L109,29.3z M106.6,21.9c-0.1-1.7-0.9-3.2-2.9-3.2s-3,1.4-3.2,3.2H106.6
			L106.6,21.9z"/>
		<path class="st0" d="M112.3,16.5h3.4v1.9h0.1c1.1-1.6,2.6-2.2,4.5-2.2c3.2,0,4.6,2.3,4.6,5.4v8.6h-3.6v-7.3c0-1.7,0-3.9-2.3-3.9
			c-2.6,0-3.1,2.8-3.1,4.5v6.7h-3.6V16.5L112.3,16.5z"/>
		<path class="st0" d="M129,19.1h-2.6v-2.6h2.6v-2.7l3.6-1.1v3.9h3.2v2.6h-3.2v6.4c0,1.2,0.3,2.3,1.7,2.3c0.6,0,1.2-0.1,1.6-0.4
			l0.1,2.8c-0.7,0.2-1.6,0.3-2.6,0.3c-2.8,0-4.3-1.7-4.3-4.4v-7.1H129z"/>
		<path class="st0" d="M137.9,11.6h4.7c4,0,7.7,1.2,7.7,5.6s-3.2,5.9-7.1,5.9h-1.6v7h-3.7L137.9,11.6L137.9,11.6z M141.6,20.2h1.3
			c1.9,0,3.5-0.6,3.5-2.8s-1.6-2.9-3.5-2.9h-1.3V20.2z"/>
		<path class="st0" d="M152.4,17.2c1.4-0.6,3.2-1,4.7-1c4.2,0,5.9,1.7,5.9,5.8v1.8c0,1.4,0,2.4,0.1,3.4c0,1,0.1,2,0.2,3.1h-3.1
			c-0.1-0.7-0.1-1.6-0.2-2h-0.1c-0.8,1.5-2.6,2.4-4.2,2.4c-2.4,0-4.8-1.5-4.8-4.1c0-2,1-3.2,2.3-3.9c1.4-0.7,3.1-0.8,4.6-0.8h2
			c0-2.2-1-2.9-3.1-2.9c-1.5,0-3,0.6-4.2,1.5L152.4,17.2L152.4,17.2z M156.5,27.8c1.1,0,1.9-0.5,2.5-1.2c0.6-0.8,0.7-1.8,0.7-2.8
			h-1.5c-1.6,0-4,0.3-4,2.4C154.3,27.3,155.3,27.8,156.5,27.8L156.5,27.8z"/>
		<path class="st0" d="M171.2,26.4L171.2,26.4l3.3-10h3.6L173,30c-1.1,3-2,6-5.7,6c-0.8,0-1.7-0.1-2.5-0.4L165,33
			c0.5,0.2,1,0.2,1.8,0.2c1.4,0,2.3-1,2.3-2.4L164,16.4h3.9L171.2,26.4L171.2,26.4z"/>
	</g>
</g>
</svg>
